inDegrees=yes
name=ik_tiny_file
DataType=double
version=3
OpenSimVersion=4.4-2022-07-23-0e9fedc
endheader
time	pelvis_tilt	pelvis_list	pelvis_rotation	pelvis_tx	pelvis_ty	pelvis_tz	hip_flexion_r	hip_adduction_r	hip_rotation_r	knee_angle_r	knee_angle_r_beta	ankle_angle_r	subtalar_angle_r	mtp_angle_r	hip_flexion_l	hip_adduction_l	hip_rotation_l	knee_angle_l	knee_angle_l_beta	ankle_angle_l	subtalar_angle_l	mtp_angle_l	lumbar_extension	lumbar_bending	lumbar_rotation	arm_flex_r	arm_add_r	arm_rot_r	elbow_flex_r	pro_sup_r	wrist_flex_r	wrist_dev_r	arm_flex_l	arm_add_l	arm_rot_l	elbow_flex_l	pro_sup_l	wrist_flex_l	wrist_dev_l
3.47	-177.8088256298595	-32.06464642087919	-38.59370529820753	0	0.9399999999999999	0	23.2087479810296	-9.030414612444032	0	43.71066317086381	0.7628949905617982	-2.805769959311961	0	0	23.2087479810296	-9.030414612444032	0	43.71066317086381	0.7628949905617982	-2.805769959311961	0	0	36.3320109952399	40.87210621139844	61.63340955847161	89.99126936944273	89.99742518063762	89.99126815205634	23.96835434521818	44.8184661978508	0	5.338561505956705	89.99417405861483	48.39446140314911	-0.7984885600171016	36.93800408580415	44.8184661978508	0	5.338561505956705
3.5	-177.8059789003899	-32.05067570310867	-38.5863635165488	0	0.9399999999999999	0	23.21945555061371	-9.031945668291238	0	43.71685413955611	0.7630030433493667	-2.807141920862104	0	0	23.21945555061371	-9.031945668291238	0	43.71685413955611	0.7630030433493667	-2.807141920862104	0	0	36.34904251882957	40.86176068834995	61.6438799157749	89.99128963118508	89.99742475032009	89.99128857028796	23.94900563796916	44.81869268410883	0	5.337612936084415	89.9941687072815	48.41935296391969	-0.7932978078574977	36.91359719330992	44.81869268410883	0	5.337612936084415
3.53	-177.81071674977	-32.07457906290578	-38.58652083378207	0	0.9399999999999999	0	23.22529910314026	-9.032779533985963	0	43.72023721497169	0.7630620891542119	-2.807890488502813	0	0	23.22529910314026	-9.032779533985963	0	43.72023721497169	0.7630620891542119	-2.807890488502813	0	0	36.32860931651384	40.87007401814569	61.62173738350769	89.99127038058877	89.99742539797202	89.99126906876998	23.98294950539944	44.81881610044702	0	5.337097110956925	89.99417362780763	48.4012186654135	-0.7927250321406748	36.93491958259374	44.81881610044702	0	5.337097110956925
3.57	-177.8046174547023	-32.05562204308481	-38.58541240578928	0	0.9399999999999999	0	23.23719878504836	-9.034478599736877	0	43.72711790353129	0.7631821798243812	-2.809415123035884	0	0	23.23719878504836	-9.034478599736877	0	43.72711790353129	0.7631821798243812	-2.809415123035884	0	0	36.33200990926461	40.84834267359876	61.65558530936983	89.9912926193908	89.99742502636468	89.99129161169347	23.96383291894655	44.81906756611681	0	5.336046434189617	89.99416890488055	48.43308160818222	-0.7863974791205136	36.91989330659061	44.81906756611681	0	5.336046434189617
3.6	-177.8127863685221	-32.07263618810018	-38.58654006682098	0	0.9399999999999999	0	23.24291324092655	-9.035292647828266	0	43.73042719647436	0.7632399378821507	-2.81014709157481	0	0	23.24291324092655	-9.035292647828266	0	43.73042719647436	0.7632399378821507	-2.81014709157481	0	0	36.31954123258679	40.86645647268176	61.64015392712511	89.99126847632034	89.99742596373817	89.99126713561436	23.978836630044	44.81918811730122	0	5.335543900075366	89.99417532709323	48.40518057637762	-0.7960870672056273	36.9463232715715	44.81918811730122	0	5.335543900075366
3.63	-177.8174378788139	-32.05142490615216	-38.59143623771399	0	0.9399999999999999	0	23.25447601827613	-9.036940865018533	0	43.73711480872785	0.7633566587350709	-2.811628443874586	0	0	23.25447601827613	-9.036940865018533	0	43.73711480872785	0.7633566587350709	-2.811628443874586	0	0	36.35131834562732	40.85863483311952	61.65868849993105	89.99128705317897	89.99742510567199	89.99128605771033	23.94556572333213	44.81943219172916	0	5.334526716661099	89.99417140517073	48.42655476354591	-0.8030557192201964	36.91765942079991	44.81943219172916	0	5.334526716661099
3.67	-177.815079198021	-32.07325855716542	-38.59238302611667	0	0.9399999999999999	0	23.26014944763588	-9.037747731557365	0	43.74040121216444	0.7634140172955882	-2.81235509924711	0	0	23.26014944763588	-9.037747731557365	0	43.74040121216444	0.7634140172955882	-2.81235509924711	0	0	36.34029165943059	40.87522387863854	61.62707705401109	89.9912669989386	89.99742527863881	89.99126563239689	23.9775262904835	44.81955174479781	0	5.334029609025059	89.99417701709959	48.38758270748532	-0.8093442820224146	36.92890238153967	44.81955174479781	0	5.334029609025059
